<svg width="1280" height="720" xmlns="http://www.w3.org/2000/svg" xmlns:xlink="http://www.w3.org/1999/xlink" overflow="hidden"><g><rect x="0" y="0" width="1280" height="720" fill="#FFFFFF" fill-opacity="0"/><path d="M389 351.5C389 205.421 507.197 87 653 87 798.803 87 917 205.421 917 351.5 917 497.579 798.803 616 653 616 507.197 616 389 497.579 389 351.5Z" fill="#44C0EB" fill-rule="evenodd"/><path d="M726 151 726 151 726 204.726 726 204.726ZM726 151 780 151 780 479 726 479 726 204.726 780 151 726 151Z" fill="#FFFFFF" fill-rule="evenodd"/><path d="M650 220 650 220 650 264.39 650 264.39ZM650 220 695 220 695 491 650 491 650 264.39 695 220 650 220Z" fill="#FFFFFF" fill-rule="evenodd"/><path d="M573 279 573 279 573 323.226 573 323.226ZM573 279 619 279 619 549 573 549 573 323.226 619 279 573 279Z" fill="#FFFFFF" fill-rule="evenodd"/><path d="M498 351 498 351 498 383.268 498 383.269ZM498 351 543 351 543 548 498 548 498 383.268 543 351 498 351Z" fill="#FFFFFF" fill-rule="evenodd"/><path d="M917 356 915.868 378.438C907.41 461.835 860.276 533.783 792.708 576.017L777.443 584.621 777.455 584.66 776.891 584.932 771.843 587.777 759.569 593.287 755.594 595.205 753.981 595.796 749.862 597.645 735.898 602.423 731.313 604.103 729.997 604.442 726.873 605.511 710.901 609.359 705.987 610.624 705.063 610.765 702.987 611.265 684.017 613.981 679.747 614.634 679.302 614.656 678.312 614.798C669.968 615.593 661.511 616 652.959 616L652.826 615.995 652.726 616C646.455 616 640.234 615.781 634.072 615.351L633.059 615.245 632.626 615.228 629.598 614.882 615.767 613.433 613.603 613.053 612.713 612.951 609.358 612.308 597.855 610.289 594.512 609.461 593.276 609.224 590.314 608.422 580.378 605.962 575.816 604.495 574.372 604.103 572.74 603.505 563.38 600.495C501.985 578.415 451.116 534.225 420.349 477.515L417 470.554 428.093 459.299C453.501 433.973 477.746 411.939 500.748 400.11 531.418 384.338 562.796 377.704 590.695 377.329 618.593 376.953 643.012 382.836 659.764 392.099 682.797 404.836 699.213 418.503 717.948 447.94L720.556 452.19 723.898 449.71C779.142 410.373 840.789 379.463 906.967 358.853Z" fill="#284360" fill-rule="evenodd"/></g></svg>