<svg width="1280" height="720" xmlns="http://www.w3.org/2000/svg" xmlns:xlink="http://www.w3.org/1999/xlink" overflow="hidden"><g><rect x="0" y="0" width="1280" height="720" fill="#FFFFFF" fill-opacity="0"/><path d="M252 360C252 274.948 320.724 206 405.5 206 490.276 206 559 274.948 559 360 559 445.052 490.276 514 405.5 514 320.724 514 252 445.052 252 360Z" fill="#44C0EB" fill-rule="evenodd"/><path d="M448 244 448 244 448 275.122 448 275.122ZM448 244 479 244 479 434 448 434 448 275.122 479 244 448 244Z" fill="#FFFFFF" fill-rule="evenodd"/><path d="M403 284 403 284 403 309.716 403 309.717ZM403 284 430 284 430 441 403 441 403 309.716 430 284 403 284Z" fill="#FFFFFF" fill-rule="evenodd"/><path d="M359 318 359 318 359 343.716 359 343.717ZM359 318 385 318 385 475 359 475 359 343.716 385 318 359 318Z" fill="#FFFFFF" fill-rule="evenodd"/><path d="M315 360 315 360 315 378.673 315 378.673ZM315 360 342 360 342 474 315 474 315 378.673 342 360 315 360Z" fill="#FFFFFF" fill-rule="evenodd"/><path d="M559 362 558.341 375.118C553.419 423.873 525.987 465.935 486.662 490.625L477.778 495.655 477.785 495.678 477.457 495.837 474.519 497.501 467.375 500.722 465.061 501.843 464.123 502.188 461.725 503.27 453.599 506.063 450.93 507.045 450.164 507.243 448.346 507.868 439.05 510.117 436.19 510.857 435.652 510.94 434.444 511.232 423.404 512.82 420.919 513.201 420.66 513.214 420.084 513.297C415.228 513.762 410.305 514 405.328 514L405.251 513.997 405.193 514C401.543 514 397.922 513.872 394.336 513.621L393.747 513.559 393.494 513.549 391.732 513.346 383.683 512.499 382.423 512.277 381.905 512.218 379.953 511.841 373.258 510.661 371.312 510.177 370.593 510.039 368.869 509.57 363.086 508.131 360.431 507.274 359.591 507.045 358.641 506.695 353.193 504.936C317.461 492.027 287.855 466.193 269.949 433.04L268 428.97 274.456 422.39C289.244 407.584 303.354 394.703 316.741 387.788 334.591 378.567 352.853 374.689 369.09 374.469 385.327 374.249 399.539 377.689 409.289 383.104 422.694 390.55 432.248 398.54 443.152 415.749L444.67 418.234 446.615 416.784C478.767 393.787 514.645 375.717 553.161 363.668Z" fill="#284360" fill-rule="evenodd"/><text fill="#FFFFFF" font-family="Nugros SemBd,Nugros SemBd_MSFontService,sans-serif" font-weight="600" font-size="72" transform="translate(604.52 378)">TASK</text><text fill="#44C0EB" font-family="Nugros SemBd,Nugros SemBd_MSFontService,sans-serif" font-weight="600" font-size="72" transform="translate(785.88 378)">-</text><text fill="#FFFFFF" font-family="Nugros SemBd,Nugros SemBd_MSFontService,sans-serif" font-weight="600" font-size="72" transform="translate(810.82 378)">STAT</text></g></svg>