<svg width="1280" height="720" xmlns="http://www.w3.org/2000/svg" xmlns:xlink="http://www.w3.org/1999/xlink" overflow="hidden"><g><rect x="0" y="0" width="1280" height="720" fill="#FFFFFF" fill-opacity="0"/><path d="M389 300.5C389 154.421 507.197 36 653 36 798.803 36 917 154.421 917 300.5 917 446.579 798.803 565 653 565 507.197 565 389 446.579 389 300.5Z" fill="#44C0EB" fill-rule="evenodd"/><path d="M726 101 726 101 726 154.562 726 154.562ZM726 101 780 101 780 428 726 428 726 154.562 780 101 726 101Z" fill="#FFFFFF" fill-rule="evenodd"/><path d="M650 170 650 170 650 214.226 650 214.226ZM650 170 695 170 695 440 650 440 650 214.226 695 170 650 170Z" fill="#FFFFFF" fill-rule="evenodd"/><path d="M573 228 573 228 573 272.226 573 272.226ZM573 228 619 228 619 498 573 498 573 272.226 619 228 573 228Z" fill="#FFFFFF" fill-rule="evenodd"/><path d="M498 300 498 300 498 332.268 498 332.269ZM498 300 543 300 543 497 498 497 498 332.268 543 300 498 300Z" fill="#FFFFFF" fill-rule="evenodd"/><path d="M917 305 915.868 327.438C907.41 410.835 860.276 482.783 792.708 525.017L777.443 533.621 777.455 533.66 776.891 533.932 771.843 536.777 759.569 542.287 755.594 544.205 753.981 544.796 749.862 546.645 735.898 551.423 731.313 553.103 729.997 553.442 726.873 554.511 710.901 558.359 705.987 559.624 705.063 559.765 702.987 560.265 684.017 562.981 679.747 563.634 679.302 563.656 678.312 563.798C669.968 564.593 661.511 565 652.959 565L652.826 564.995 652.726 565C646.455 565 640.234 564.781 634.072 564.351L633.059 564.245 632.626 564.228 629.598 563.882 615.767 562.433 613.603 562.053 612.713 561.951 609.358 561.308 597.855 559.289 594.512 558.461 593.276 558.224 590.314 557.422 580.378 554.962 575.816 553.495 574.372 553.103 572.74 552.505 563.38 549.495C501.985 527.415 451.116 483.225 420.349 426.515L417 419.554 428.093 408.299C453.501 382.973 477.746 360.939 500.748 349.11 531.418 333.338 562.796 326.704 590.695 326.329 618.593 325.953 643.012 331.836 659.764 341.099 682.797 353.836 699.213 367.503 717.948 396.94L720.556 401.19 723.898 398.71C779.142 359.373 840.789 328.463 906.967 307.853Z" fill="#284360" fill-rule="evenodd"/><text font-family="Nugros SemBd,Nugros SemBd_MSFontService,sans-serif" font-weight="600" font-size="72" transform="translate(465.839 644)">TASK</text><text fill="#44C0EB" font-family="Nugros SemBd,Nugros SemBd_MSFontService,sans-serif" font-weight="600" font-size="72" transform="translate(647.199 644)">-</text><text font-family="Nugros SemBd,Nugros SemBd_MSFontService,sans-serif" font-weight="600" font-size="72" transform="translate(672.139 644)">STAT</text></g></svg>